# xmcd
# Track frame offsets:
# 150
# 22155
# 56487
# 79332
# 130300
# 153605
# 187937
# 221560
# 258150
# 292432
#
# Disc length: 4277 seconds
# Revision: 2
# Processed by: cddbd v1.5.2PL0 Copyright (c) Steve Scherf et al.
# Submitted via: VisiTrax 2.10.3.257 - For more info visit www.synapsa.com
#
DISCID=9810b30a
DTITLE=Various Artist - Warren Haynes Presents The Benefit Concert Vol
DTITLE=1 - Disc 1
DYEAR=2000
DGENRE=Blues
TTITLE0=Edwin McCain - Beautiful Life
TTITLE1=Edwin McCain w/Warren Haynes - Alive
TTITLE2=Edwin McCain w/Warren Haynes - I'll Be
TTITLE3=The Derek Trucks Band - Rastaman Chant
TTITLE4=The Derek Trucks Band - Chicken Strut
TTITLE5=The Derek Trucks Band w/Jimmy Herring - 555 Lake
TTITLE6=The Derek Trucks Band w/Col. Bruce Hampton and Jimmy Herring - Yield No
TTITLE6=t to Temptation - Turn On Your Lovelight
TTITLE7=The Derek Trucks Band w/Larry McCray and Jimmy Herring - Ain't That Lovi
TTITLE7=ng You
TTITLE8=The Derek Trucks Band w/Edwin McCain and Jimmy Herring - Don't Change Ho
TTITLE8=rses (In the Middle Of A Stream)
TTITLE9=The Derek Trucks Band w/Susan Tedeschi - Just Won't Burn
EXTD=Produced by Warren Haynes. Recorded live at Warren Haynes' 11th Annua
EXTD=l Christmas Jam in Asheville, NC at the Thomas Wolfe Auditorium on Dec
EXTD=ember 22nd, 1999. EVIL TEEN 651751-1201-2-9.
EXTT0=
EXTT1=
EXTT2=
EXTT3=
EXTT4=
EXTT5=
EXTT6=
EXTT7=
EXTT8=
EXTT9=
PLAYORDER=
